# xmcd CD database file
#
# Track frame offsets:
#	150
#	15172
#	35387
#	57664
#	75840
#	96072
#	110090
#	131130
#	149815
#	165837
#
# Disc length: 2655 seconds
#
# Revision: 2
# Processed by: cddbd v1.5.1PL0 Copyright (c) Steve Scherf et al.
# Submitted via: CDex 1.50
#
DISCID=7b0a5d0a
DTITLE=Various Artist - るろうに剣心-明治剣客浪漫譚-SONGS
DYEAR=1996
DGENRE=Anime
TTITLE0=追憶〜in the Past〜
TTITLE1=涼風真世（緋村剣心）/愛する人を守るために
TTITLE2=藤谷美紀（神谷薫）/好きとかじゃなくて…
TTITLE3=上田祐司（相楽左之助）/心の裸
TTITLE4=富永みーな（明神弥彦）/１／世界 の僕
TTITLE5=Over the Horizon
TTITLE6=涼風真世＆藤谷美紀（緋村剣心＆神谷薫）/夏の絵
TTITLE7=上田祐司＆土井美加（相楽左之助＆高荷恵）/2 Of A Kind！
TTITLE8=湯浅香織＆並木のり子（あやめ＆すずめ）/白いイチゴ
TTITLE9=るろうに剣心Voices/この世界の片隅で…
EXTD=YEAR: 1996
EXTT0=
EXTT1=
EXTT2=
EXTT3=
EXTT4=
EXTT5=
EXTT6=
EXTT7=
EXTT8=
EXTT9=
PLAYORDER=
